<svg width="3565" height="3565" xmlns="http://www.w3.org/2000/svg" xmlns:xlink="http://www.w3.org/1999/xlink" xml:space="preserve" overflow="hidden"><g transform="translate(-1517 545)"><g><rect x="1521" y="-542" width="3558" height="3558" fill="#353955" fill-opacity="1"/><path d="M3294 1237C3294 1151.95 3363.17 1083 3448.5 1083 3533.83 1083 3603 1151.95 3603 1237 3603 1322.05 3533.83 1391 3448.5 1391 3363.17 1391 3294 1322.05 3294 1237Z" fill="#CC3470" fill-rule="evenodd" fill-opacity="1"/><path d="M4511 773C4511 687.948 4580.17 619 4665.5 619 4750.83 619 4820 687.948 4820 773 4820 858.052 4750.83 927 4665.5 927 4580.17 927 4511 858.052 4511 773Z" fill="#00DFFF" fill-rule="evenodd" fill-opacity="1"/><path d="M2928 1700.5C2928 1615.17 2996.95 1546 3082 1546 3167.05 1546 3236 1615.17 3236 1700.5 3236 1785.83 3167.05 1855 3082 1855 2996.95 1855 2928 1785.83 2928 1700.5Z" fill="#FC4CA4" fill-rule="evenodd" fill-opacity="1"/><path d="M1780 1702C1780 1616.95 1849.17 1548 1934.5 1548 2019.83 1548 2089 1616.95 2089 1702 2089 1787.05 2019.83 1856 1934.5 1856 1849.17 1856 1780 1787.05 1780 1702Z" fill="#FFFFFF" fill-rule="evenodd" fill-opacity="1"/><path d="M1780 1238C1780 1152.95 1849.17 1084 1934.5 1084 2019.83 1084 2089 1152.95 2089 1238 2089 1323.05 2019.83 1392 1934.5 1392 1849.17 1392 1780 1323.05 1780 1238Z" fill="#FFFFFF" fill-rule="evenodd" fill-opacity="1"/><path d="M1780 774.5C1780 689.172 1849.17 620 1934.5 620 2019.83 620 2089 689.172 2089 774.5 2089 859.828 2019.83 929 1934.5 929 1849.17 929 1780 859.828 1780 774.5Z" fill="#FFFFFF" fill-rule="evenodd" fill-opacity="1"/><path d="M2295 1702C2295 1616.95 2364.17 1548 2449.5 1548 2534.83 1548 2604 1616.95 2604 1702 2604 1787.05 2534.83 1856 2449.5 1856 2364.17 1856 2295 1787.05 2295 1702Z" fill="#FFFFFF" fill-rule="evenodd" fill-opacity="1"/><path d="M3771 1238C3771 1152.95 3839.95 1084 3925 1084 4010.05 1084 4079 1152.95 4079 1238 4079 1323.05 4010.05 1392 3925 1392 3839.95 1392 3771 1323.05 3771 1238Z" fill="#893A77" fill-rule="evenodd" fill-opacity="1"/><path d="M3771 1692C3771 1606.95 3839.95 1538 3925 1538 4010.05 1538 4079 1606.95 4079 1692 4079 1777.05 4010.05 1846 3925 1846 3839.95 1846 3771 1777.05 3771 1692Z" fill="#7360A0" fill-rule="evenodd" fill-opacity="1"/><path d="M4511 1237C4511 1151.95 4580.17 1083 4665.5 1083 4750.83 1083 4820 1151.95 4820 1237 4820 1322.05 4750.83 1391 4665.5 1391 4580.17 1391 4511 1322.05 4511 1237Z" fill="#0ABEFF" fill-rule="evenodd" fill-opacity="1"/><path d="M4511 1700.5C4511 1615.17 4580.17 1546 4665.5 1546 4750.83 1546 4820 1615.17 4820 1700.5 4820 1785.83 4750.83 1855 4665.5 1855 4580.17 1855 4511 1785.83 4511 1700.5Z" fill="#4E93D5" fill-rule="evenodd" fill-opacity="1"/><path d="M3771 784C3771 698.948 3839.95 630 3925 630 4010.05 630 4079 698.948 4079 784 4079 869.052 4010.05 938 3925 938 3839.95 938 3771 869.052 3771 784Z" fill="#A8254D" fill-rule="evenodd" fill-opacity="1"/></g></g></svg>